<svg xmlns="http://www.w3.org/2000/svg" viewBox="0 0 128 128"><defs><style>.cls-1{fill:#28a56f;}.cls-2{fill:#f7b45c;}.cls-3{fill:#ffcf8a;}.cls-4{fill:#3d2a3d;}</style></defs><title>Fichier 2</title><g id="Calque_2" data-name="Calque 2"><g id="Calque_1-2" data-name="Calque 1"><g id="Layer_9" data-name="Layer 9"><path class="cls-1" d="M128,64A64,64,0,1,1,64,0,64,64,0,0,1,128,64Z"/></g><g id="Layer_7" data-name="Layer 7"><path class="cls-2" d="M48.55,34l-29,32.78c-3.6,7.19-1.93,15.46,3.73,18.52l.72.41c5.67,3,13.18-.32,16.77-7.56L49.9,34.78Z"/><path class="cls-2" d="M77.05,33l32.11,29.81c4.31,6.79,3.41,15.2-1.94,18.79l-.72.45c-5.35,3.56-13.17,1-17.44-5.89L75.75,33.88Z"/><path class="cls-3" d="M57.4,29.92c-5,0-10.47,4.23-12.14,9.44l-9,28.69c-1.67,5.22,1.08,9.53,6.16,9.53H84.7c5,0,7.78-4.31,6.16-9.57l-9.09-28.6c-1.66-5.22-7.1-9.49-12.14-9.49Z"/><path class="cls-3" d="M92.07,75.29c0,11.92-12.81,21.54-28.55,21.54S35,87.16,35,75.29,47.78,53.75,63.52,53.75,92.07,63.37,92.07,75.29Z"/><path class="cls-4" d="M56,58.29a3.51,3.51,0,1,1-3.51-3.5A3.51,3.51,0,0,1,56,58.29Z"/><path class="cls-4" d="M78,58.29a3.51,3.51,0,1,1-3.5-3.5A3.51,3.51,0,0,1,78,58.29Z"/><path class="cls-3" d="M80.34,81.54a8.85,8.85,0,0,1-8.86,8.86H55.61a8.84,8.84,0,0,1-8.86-8.86h0a8.84,8.84,0,0,1,8.86-8.86H71.48a8.88,8.88,0,0,1,8.86,8.86Z"/><path class="cls-3" d="M75.21,73.63C75.21,78.8,70,83,63.56,83S51.92,78.8,51.92,73.63s5.21-9.4,11.64-9.4S75.21,68.46,75.21,73.63Z"/><path class="cls-4" d="M72,72.59c0,2.43-8.5,7-8.5,7S55,75,55,72.59s3.82-3,8.5-3S72,70.21,72,72.59Z"/><path class="cls-4" d="M65.32,86.17a1.61,1.61,0,0,1-1.62,1.62h-.14A1.61,1.61,0,0,1,62,86.17V77.63A1.61,1.61,0,0,1,63.56,76h.14a1.61,1.61,0,0,1,1.62,1.62Z"/><path class="cls-4" d="M70,80.42a6.44,6.44,0,0,1-12.86,0c0-2.12-3.5-2.12-3.46,0,.14,5.17,4.41,9.21,9.89,9.35a9.74,9.74,0,0,0,9.9-9.35c0-2.12-3.47-2.12-3.47,0Z"/></g></g></g></svg>