<svg xmlns="http://www.w3.org/2000/svg" viewBox="0 0 128 128"><defs><style>.cls-1{fill:#9ec853;}.cls-2{fill:#3d2a3d;}</style></defs><title>Fichier 1</title><g id="Calque_2" data-name="Calque 2"><g id="Calque_1-2" data-name="Calque 1"><g id="Layer_9" data-name="Layer 9"><path class="cls-1" d="M128,64.45A64,64,0,1,1,64.45,0,64,64,0,0,1,128,64.45Z"/></g><g id="Layer_7" data-name="Layer 7"><path class="cls-2" d="M105.75,51.88a3.88,3.88,0,0,1-3.88,3.87h-1A3.88,3.88,0,0,1,97,51.88v0A3.88,3.88,0,0,1,100.85,48h1a3.9,3.9,0,0,1,3.88,3.9Z"/><path class="cls-2" d="M91,79.12a1.4,1.4,0,0,1-1.38,1.38H87.87a1.39,1.39,0,0,1-1.37-1.38V59.63a1.39,1.39,0,0,1,1.37-1.38h1.75A1.4,1.4,0,0,1,91,59.63Z"/><path class="cls-2" d="M73,79.12a1.4,1.4,0,0,1-1.38,1.38H69.87a1.39,1.39,0,0,1-1.37-1.38V59.63a1.39,1.39,0,0,1,1.37-1.38h1.75A1.4,1.4,0,0,1,73,59.63Z"/><path class="cls-2" d="M92.75,60.43A7.57,7.57,0,0,1,85.17,68H69.6A7.56,7.56,0,0,1,62,60.43V57.85a7.56,7.56,0,0,1,7.57-7.57H85.17a7.57,7.57,0,0,1,7.58,7.57Z"/><path class="cls-2" d="M89.8,52.15A8.86,8.86,0,0,1,90,54V56.7a7.57,7.57,0,0,1-7.68,7.8h-16a7.24,7.24,0,0,1-3.49-.82A7.67,7.67,0,0,0,69.62,68H85.25a7.3,7.3,0,0,0,7.5-7.32V58.15A7.53,7.53,0,0,0,89.8,52.15Z"/><path class="cls-2" d="M66.75,80.62A1.4,1.4,0,0,1,65.37,82H63.63a1.4,1.4,0,0,1-1.38-1.38V61.13a1.4,1.4,0,0,1,1.38-1.38h1.74a1.4,1.4,0,0,1,1.38,1.38Z"/><path class="cls-2" d="M81,66.25c-.23,0-.25.2-.5.1V80.82A1.17,1.17,0,0,0,81.8,82h1.6c.77,0,1.35-.4,1.35-1.18V66.25Z"/><path class="cls-2" d="M66.3,50.78a7.09,7.09,0,0,1-6.6-7c-.07-2.65-2.2-2.7-2.12-.05.15,6.07,2.72,10.75,8.74,11.17,2.65.18,2.63-3.95,0-4.12Z"/><path class="cls-2" d="M77.12,54.1c3.25,0,5.9-1.6,6.1-3.85h-12c-.07,0-.17.08-.25.08C71.22,52.4,73.87,54.1,77.12,54.1Z"/><path class="cls-2" d="M100.5,54.3a3.19,3.19,0,0,1-3.2,3.2H89.2A3.18,3.18,0,0,1,86,54.3V45a3.19,3.19,0,0,1,3.2-3.2h8.1a3.2,3.2,0,0,1,3.2,3.2Z"/><path class="cls-2" d="M105.65,51.13a2.1,2.1,0,0,0,.55-1.45,2.13,2.13,0,0,0-2.13-2.13,2.17,2.17,0,0,0-1.57.7C103.6,49.18,104.62,50.13,105.65,51.13Z"/><path class="cls-2" d="M76,57.9c0,1-1.23,1.8-2.73,1.8s-2.72-.8-2.72-1.8,1.22-1.8,2.72-1.8S76,56.9,76,57.9Z"/><path class="cls-2" d="M74.85,80.5a1.93,1.93,0,0,0,.15-.75,2.27,2.27,0,0,0-2.28-2.25H70.57a2.26,2.26,0,0,0-2.27,2.25,1.93,1.93,0,0,0,.15.75Z"/><path class="cls-2" d="M69.42,82a2.31,2.31,0,0,0,.15-.83,2.42,2.42,0,0,0-2.42-2.42H64.87a2.42,2.42,0,0,0-2.42,2.42,2.23,2.23,0,0,0,.15.83Z"/><path class="cls-2" d="M93.27,80c.1,0,.15-.48.15-.75A2.26,2.26,0,0,0,91.15,77H89a2.27,2.27,0,0,0-2.28,2.25c0,.27,0,.75.15.75Z"/><path class="cls-2" d="M87.25,82a2.31,2.31,0,0,0,.15-.83A2.43,2.43,0,0,0,85,78.75H82.7a2.42,2.42,0,0,0-2.43,2.42,2.23,2.23,0,0,0,.15.83Z"/><path class="cls-2" d="M89,43.43l4.53,15.3c.07,2.92-1.75,5.4-4.1,5.52l-.3,0c-2.35.12-4.3-2.15-4.38-5.1L88.4,43.45Z"/><path class="cls-2" d="M105.2,51.93a4.14,4.14,0,0,1-3.48-1c-.67-.6,1.85.37,2.53,1,1.35,1.2-.45,1.73,1.32,1.4.88-.15.5-1.47-.37-1.32Z"/><path class="cls-2" d="M98.77,48.68a1.55,1.55,0,1,1-1.55-1.55A1.54,1.54,0,0,1,98.77,48.68Z"/><path class="cls-2" d="M41,78a14.79,14.79,0,0,1-4.22-.08,14.2,14.2,0,0,1-3.45-1,13.24,13.24,0,0,1-5.38-4.55,11.36,11.36,0,0,1-1.5-3.1,11.06,11.06,0,0,1-.57-3.47,12.21,12.21,0,0,1,2.92-8,1.55,1.55,0,0,0,0-2.17,1.53,1.53,0,0,0-2.17,0,15.61,15.61,0,0,0-3.83,9.82,15.28,15.28,0,0,0,2.4,8.4A16.63,16.63,0,0,0,41,81.1a1.57,1.57,0,0,0,1.53-1.53A1.54,1.54,0,0,0,41,78Z"/><rect class="cls-2" x="41.75" y="55.5" width="5.25" height="14"/><path class="cls-2" d="M50.75,81V67.77a5.2,5.2,0,0,0-5.27-5.27H43.2a5.35,5.35,0,0,0-5.45,5.27V81Z"/><path class="cls-2" d="M42.68,81a5,5,0,0,0,.07-.93c0-3.42-2.25-9.9-5-9.9s-5,6.45-5,9.88c0,.32,0,.67,0,.92h9.93Z"/><path class="cls-2" d="M55.93,81a5,5,0,0,0,.07-.93c0-3.42-2.25-9.9-5-9.9s-5,6.45-5,9.88A5.08,5.08,0,0,0,46,81h9.9Z"/><path class="cls-2" d="M48.05,81.5a21.12,21.12,0,0,0,.7-5.45c0-5.58-2-10.1-4.4-10.1S40,70.5,40,76.05a21.12,21.12,0,0,0,.7,5.45Z"/><path class="cls-2" d="M42.93,82a3.67,3.67,0,0,0,.07-.75,4.68,4.68,0,0,0-9.35,0,3.87,3.87,0,0,0,.08.77h9.2Z"/><path class="cls-2" d="M55,82a3.67,3.67,0,0,0,.07-.75,4.68,4.68,0,0,0-9.35,0,3.87,3.87,0,0,0,.08.77H55Z"/><path class="cls-2" d="M35,51.13c.1,1.15.87,1.45,1.72.67L41,48a1.18,1.18,0,0,0-.37-2.15l-4.33-1.72a1.18,1.18,0,0,0-1.75,1.3Z"/><path class="cls-2" d="M36.15,50.7c.08.78.6,1,1.18.48L40.2,48.6A.8.8,0,0,0,40,47.15L37,46c-.73-.28-1.25.1-1.18.87Z"/><path class="cls-2" d="M53.7,51.13c-.1,1.15-.87,1.45-1.72.67L47.73,48a1.18,1.18,0,0,1,.37-2.15l4.33-1.72a1.18,1.18,0,0,1,1.75,1.3Z"/><path class="cls-2" d="M52.5,50.7c-.07.78-.6,1-1.17.48L48.45,48.6a.8.8,0,0,1,.25-1.45L51.63,46c.72-.28,1.25.1,1.17.87Z"/><ellipse class="cls-2" cx="44.33" cy="57.18" rx="10.35" ry="4.75"/><path class="cls-2" d="M52.75,60.5V53.35c0-4.07-3.7-7.4-8.25-7.4s-8.25,3.3-8.25,7.4V60.5Z"/><path class="cls-2" d="M42.48,53.53a.88.88,0,1,1-.88-.88A.89.89,0,0,1,42.48,53.53Z"/><path class="cls-2" d="M48,53.53a.88.88,0,1,1-.87-.88A.88.88,0,0,1,48,53.53Z"/><path class="cls-2" d="M45,50V46a4.5,4.5,0,0,0-.62,0,4.57,4.57,0,0,0-.63,0v4C43.75,51,45,51,45,50Z"/><path class="cls-2" d="M40.8,50.13a.66.66,0,0,0,1.28-.35,5.18,5.18,0,0,1,.37-3.63,9.31,9.31,0,0,0-1.6.5A6.63,6.63,0,0,0,40.8,50.13Z"/><path class="cls-2" d="M46.58,49.78a.66.66,0,0,0,1.27.35,6.6,6.6,0,0,0-.05-3.5,10.28,10.28,0,0,0-1.6-.5A5.3,5.3,0,0,1,46.58,49.78Z"/><path class="cls-2" d="M44.33,63.28c4.3,0,8-1.4,9.8-3.4-1.78-2-5.5-3.4-9.8-3.4s-8,1.4-9.8,3.4C36.33,61.88,40,63.28,44.33,63.28Z"/><path class="cls-2" d="M48,58.75a2,2,0,0,1-2,2H42.5a2,2,0,0,1-2-2h0a2,2,0,0,1,2-2H46a2,2,0,0,1,2,2Z"/><path class="cls-2" d="M47,56.93a2.46,2.46,0,0,1-2.65,2.15,2.43,2.43,0,0,1-2.65-2.15,2.71,2.71,0,0,1,5.3,0Z"/><path class="cls-2" d="M45.78,58.65a1.5,1.5,0,0,1-1.48,1.48,1.48,1.48,0,0,1-1.47-1.48c0-.5-.8-.5-.78,0a2.25,2.25,0,0,0,4.5,0c0-.5-.77-.5-.77,0Z"/><path class="cls-2" d="M46.13,56.13c0,.52-1.83,1.5-1.83,1.5s-1.82-1-1.82-1.5.82-.65,1.82-.65S46.13,55.6,46.13,56.13Z"/><path class="cls-2" d="M44.75,59.63a.38.38,0,0,1-.37.37h0a.38.38,0,0,1-.38-.37v-2.5a.39.39,0,0,1,.38-.38h0a.38.38,0,0,1,.37.38Z"/></g></g></g></svg>