<svg xmlns="http://www.w3.org/2000/svg" viewBox="0 0 128 128"><defs><style>.cls-1{fill:#3d2a3d;}.cls-2{fill:#c41e1e;}.cls-3{fill:#db4646;}.cls-4{fill:#fff;}</style></defs><title>Fichier 2</title><g id="Calque_2" data-name="Calque 2"><g id="Calque_1-2" data-name="Calque 1"><g id="Layer_9" data-name="Layer 9"><path class="cls-1" d="M128,64A64,64,0,1,1,64,0,64,64,0,0,1,128,64Z"/></g><g id="Layer_7" data-name="Layer 7"><path class="cls-2" d="M79.18,31c-4.35-4.1-11.8-2.85-17.28-2.85-2.47,0-5-.17-7.35.65a11,11,0,0,0-7.17,10.23c-.18,5.62-.93,12.35,3.55,16.58s11.8,2.84,17.27,2.84c2.48,0,5,.18,7.35-.65a11,11,0,0,0,7.15-9.9,1.16,1.16,0,0,0,0-.32C82.72,41.88,83.78,35.35,79.18,31ZM71.5,53.75H63.7a42.09,42.09,0,0,1-6.45,0C53.58,53.15,52,50,52,46.63V39.1a6.3,6.3,0,0,1,6.45-6.22c4.63,0,9.3-.13,13.93,0,7.25.23,5.68,10,5.68,14.7A6.24,6.24,0,0,1,71.5,53.75Z"/><path class="cls-3" d="M107,90.93a6.82,6.82,0,0,1-6.82,6.82H29.83A6.82,6.82,0,0,1,23,90.93V46.33a6.82,6.82,0,0,1,6.83-6.83h70.35A6.82,6.82,0,0,1,107,46.33Z"/><path class="cls-4" d="M75,89a5.55,5.55,0,0,1-5.55,5.55h-8.9A5.55,5.55,0,0,1,55,89V49.05a5.55,5.55,0,0,1,5.55-5.55h8.9A5.55,5.55,0,0,1,75,49.05Z"/><path class="cls-4" d="M90.5,73.45A5.55,5.55,0,0,1,85,79H45.05a5.55,5.55,0,0,1-5.55-5.55V64.52A5.55,5.55,0,0,1,45.05,59H85a5.56,5.56,0,0,1,5.56,5.55v8.93Z"/><path class="cls-1" d="M72.75,73.63a3.62,3.62,0,0,1-3.62,3.62H61.38a3.63,3.63,0,0,1-3.63-3.62h0A3.64,3.64,0,0,1,61.38,70h7.75a3.63,3.63,0,0,1,3.62,3.63Z"/><path class="cls-1" d="M68.78,70.82c0,2.58-1.68,4.68-3.75,4.68s-3.75-2.1-3.75-4.68S63,66.15,65,66.15,68.78,68.25,68.78,70.82Z"/><ellipse class="cls-1" cx="68.84" cy="63.44" rx="2.9" ry="2.88" transform="translate(4.82 131.74) rotate(-89.51)"/><path class="cls-1" d="M64.1,63.42a2.89,2.89,0,0,1-2.88,2.9,2.9,2.9,0,1,1,2.88-2.9Z"/><path class="cls-1" d="M58.58,68.4A2.43,2.43,0,1,1,56.15,66,2.47,2.47,0,0,1,58.58,68.4Z"/><path class="cls-1" d="M76.32,68.4A2.43,2.43,0,1,1,73.9,66,2.43,2.43,0,0,1,76.32,68.4Z"/></g></g></g></svg>