<svg xmlns="http://www.w3.org/2000/svg" viewBox="0 0 128 128"><defs><style>.cls-1{fill:#43b06d;}.cls-2{fill:#fff;}.cls-3{fill:#3d2a3d;}.cls-4{fill:#7a6c7a;}.cls-5{fill:#db4646;}</style></defs><title>Fichier 1</title><g id="Calque_2" data-name="Calque 2"><g id="Calque_1-2" data-name="Calque 1"><g id="Layer_9" data-name="Layer 9"><path class="cls-1" d="M128,64A64,64,0,1,1,64,0,64,64,0,0,1,128,64Z"/></g><g id="Layer_7" data-name="Layer 7"><path class="cls-2" d="M89,97.13c0,4.2-3,7.62-6.62,7.62h-36c-3.65,0-6.63-3.4-6.63-7.62V29.38c0-4.2,3-7.63,6.63-7.63h36c3.65,0,6.63,3.4,6.63,7.63V97.13Z"/><rect class="cls-3" x="42.5" y="33.75" width="43.25" height="57"/><path class="cls-4" d="M71.75,28.63A1.38,1.38,0,0,1,70.38,30H57.88a1.39,1.39,0,0,1-1.38-1.37h0a1.4,1.4,0,0,1,1.38-1.38h12.5a1.39,1.39,0,0,1,1.37,1.38Z"/><path class="cls-4" d="M69,97.15a4.63,4.63,0,1,1-4.63-4.62A4.64,4.64,0,0,1,69,97.15Z"/><path class="cls-5" d="M70.75,76a3.51,3.51,0,0,1-3.52,3.52H61.55A3.51,3.51,0,0,1,58,76V50.53A3.52,3.52,0,0,1,61.55,47h5.68a3.52,3.52,0,0,1,3.52,3.53Z"/><path class="cls-5" d="M80.75,66.23a3.51,3.51,0,0,1-3.52,3.52H51.78a3.52,3.52,0,0,1-3.53-3.52V60.55A3.52,3.52,0,0,1,51.78,57H77.2a3.52,3.52,0,0,1,3.53,3.52v5.68Z"/><path class="cls-2" d="M66,69a2.44,2.44,0,0,1-3.45,0L59,65.4A2.44,2.44,0,0,1,59,62h0a2.44,2.44,0,0,1,3.45,0L66,65.5A2.44,2.44,0,0,1,66,69Z"/><path class="cls-2" d="M65.48,65.85c-1.2,1.2-3,1.4-3.93.43A2.83,2.83,0,0,1,62,62.35c1.2-1.2,3-1.4,3.92-.42S66.7,64.65,65.48,65.85Z"/><path class="cls-2" d="M70.33,63.78a1.91,1.91,0,1,1,0-2.7A1.9,1.9,0,0,1,70.33,63.78Z"/><path class="cls-2" d="M66.75,60.2a1.91,1.91,0,1,1,0-2.7A1.9,1.9,0,0,1,66.75,60.2Z"/><path class="cls-2" d="M61.85,60a1.61,1.61,0,1,1,0-2.27A1.6,1.6,0,0,1,61.85,60Z"/><path class="cls-2" d="M70.15,68.25a1.61,1.61,0,1,1,0-2.27A1.6,1.6,0,0,1,70.15,68.25Z"/></g></g></g></svg>