<svg xmlns="http://www.w3.org/2000/svg" viewBox="0 0 128 128"><defs><style>.cls-1{fill:#db4646;}.cls-2{fill:#3d2a3d;}.cls-3{fill:#ffdbc5;}</style></defs><title>Fichier 2</title><g id="Calque_2" data-name="Calque 2"><g id="Calque_1-2" data-name="Calque 1"><g id="Layer_9" data-name="Layer 9"><path class="cls-1" d="M0,64a64,64,0,1,1,64,64A64,64,0,0,1,0,64Z"/></g><g id="Layer_7" data-name="Layer 7"><path class="cls-2" d="M76,70.65a6,6,0,0,1-6,6H57.6a6.1,6.1,0,0,1-6.1-6v0a6.12,6.12,0,0,1,6.28-5.88H70.13A5.78,5.78,0,0,1,76,70.63v0Z"/><path class="cls-2" d="M69.88,66.15c0,4.2-2.73,7.63-6.1,7.63s-6.1-3.4-6.1-7.63,2.72-7.62,6.1-7.62S69.88,62,69.88,66.15Z"/><path class="cls-2" d="M74.73,54.1A4.7,4.7,0,1,1,70,49.4,4.69,4.69,0,0,1,74.73,54.1Z"/><path class="cls-2" d="M62.28,54.1a4.7,4.7,0,1,1-4.7-4.7A4.69,4.69,0,0,1,62.28,54.1Z"/><path class="cls-2" d="M53.28,62.2a4,4,0,1,1-4-4A4,4,0,0,1,53.28,62.2Z"/><path class="cls-2" d="M82.2,62.2a4,4,0,1,1-4-4A4,4,0,0,1,82.2,62.2Z"/><path class="cls-3" d="M42.13,31.25a3.89,3.89,0,0,0,5.1,2L62.1,26.8a3.88,3.88,0,0,0,2-5.1h0a3.89,3.89,0,0,0-5.1-2L44.13,26.15a3.9,3.9,0,0,0-2,5.1Z"/><path class="cls-3" d="M35.33,40.08a3.26,3.26,0,0,0,4.6-.43l7.67-7.9a3.26,3.26,0,0,0-.42-4.6h0a3.3,3.3,0,0,0-4.63.43l-7.67,7.9a3.3,3.3,0,0,0,.45,4.6Z"/><path class="cls-3" d="M54.2,35.08a3.62,3.62,0,0,0,3,4.17l10.1,2a3.62,3.62,0,0,0,4.17-3h0a3.63,3.63,0,0,0-3-4.18l-10.1-2a3.63,3.63,0,0,0-4.18,3Z"/><path class="cls-3" d="M61.4,19.53l30.83,9.52-4,10.5-20,1.75A3.66,3.66,0,0,1,64,38.35c-.5-2.07-1.13-3.15.72-3.6l2.48-1.32-9.2-5a4.38,4.38,0,0,1-2.55-5.65C56.33,20.53,59.15,18.68,61.4,19.53Z"/><rect class="cls-3" x="82.75" y="26.5" width="10.75" height="13.25"/><path class="cls-3" d="M85.48,94.83a3.89,3.89,0,0,0-5.1-2L65.5,99.3a3.88,3.88,0,0,0-2,5.1h0a3.89,3.89,0,0,0,5.1,2L83.48,100a3.91,3.91,0,0,0,2-5.12Z"/><path class="cls-3" d="M92.25,86a3.26,3.26,0,0,0-4.6.42L80,94.35A3.26,3.26,0,0,0,80.4,99h0A3.29,3.29,0,0,0,85,98.53l7.67-7.9a3.28,3.28,0,0,0-.45-4.6Z"/><path class="cls-3" d="M73.4,91a3.63,3.63,0,0,0-3-4.18l-10.1-2a3.63,3.63,0,0,0-4.18,3h0a3.62,3.62,0,0,0,3,4.17l10.1,2a3.62,3.62,0,0,0,4.17-3Z"/><path class="cls-3" d="M66.18,106.55,35.35,97l4-10.5,20-1.75a3.66,3.66,0,0,1,4.25,3c.5,2.07,1.13,3.15-.72,3.6l-2.48,1.32,9.2,5a4.38,4.38,0,0,1,2.55,5.65C71.25,105.58,68.45,107.43,66.18,106.55Z"/><rect class="cls-3" x="34.25" y="86.5" width="10.75" height="13.25"/></g></g></g></svg>