<svg xmlns="http://www.w3.org/2000/svg" viewBox="0 0 129.16 120.54"><defs><style>.cls-1{fill:#b0e000;}.cls-2,.cls-3{fill:#000e72;}.cls-3{isolation:isolate;font-size:39.99px;font-family:Viga-Regular, Viga;}.cls-4{fill:red;}</style></defs><title>Fichier 12</title><g id="Calque_2" data-name="Calque 2"><g id="Calque_1-2" data-name="Calque 1"><g id="g24"><g id="g30"><path id="path32" class="cls-1" d="M47.58,47a8.53,8.53,0,0,1-17,0V40.59h1.39V47A7.14,7.14,0,0,0,46.2,47v-.72h1.38Zm-10-6.55c.35,0,.64,1,.64,2.22s-.29,2.22-.64,2.22-.65-1-.65-2.22.29-2.22.65-2.22m4,0c.35,0,.64,1,.64,2.22s-.29,2.22-.64,2.22-.65-1-.65-2.22.29-2.22.65-2.22m12.71,4.29L53.06,26.82,45.7,34.3H33.84l-7.36-7.48L24.07,63H17.71a3.65,3.65,0,0,1-3.65-3.65V51.9a9.09,9.09,0,0,0-5.63-8.49,9.11,9.11,0,0,0-6.57-.24A2.78,2.78,0,0,0,.79,47.74a2.83,2.83,0,0,0,2.93.67,3.8,3.8,0,0,1,2.56.12A3.61,3.61,0,0,1,8.51,51.9v7.49a9.2,9.2,0,0,0,9.2,9.2H55.84l-1-14.77-5.4,4.7-.91-1.05L59.38,48V51.2h5.13V44.74Z"/></g></g><g id="g36"><g id="g42"><path id="path44" class="cls-2" d="M65.3.47V0H60.44s.07,5,.14,5.32A4.87,4.87,0,0,0,65.3.47"/></g><g id="g46"><path id="path48" class="cls-2" d="M82.56,5.38c-.35,0-.64-.73-.64-1.63s.29-1.62.64-1.62.65.73.65,1.62-.29,1.63-.65,1.63m37.87,56.37H117L98.21,34.3v-8H98A11.26,11.26,0,0,1,87,15.1V0H66.69V.47A6.25,6.25,0,0,1,61,6.69a8.43,8.43,0,0,0,10.87,4.79l7.94-3.05A14,14,0,0,1,72,17.07a.13.13,0,0,0,.06.25h7.76V44.74H66V51.2h5.37V48L86.09,60.55l-.94,1L79.77,57V68.59h47.5a6.84,6.84,0,0,0-6.84-6.84"/></g><g id="g50"><path id="path52" class="cls-2" d="M98.21,25h0V0H88.35V15.1A9.87,9.87,0,0,0,98.21,25"/></g></g><g id="text56"><text class="cls-3" transform="translate(5.36 104.97)">LAEKA</text></g><g id="g62"><path id="path64" class="cls-4" d="M60,40.56l-2.69-2.68,1-1,2.68,2.68Z"/></g><path id="path66" class="cls-4" d="M66,38.31H64.61V30.17H66Z"/><g id="g68"><path id="path70" class="cls-4" d="M71.26,37.35l-1.09-.85,2.5-3.22,1.09.85Z"/></g><path class="cls-2" d="M23.37,113.66H21.19v6.72H19.6v-6.72H17.43v-1.42h5.94Z"/><path class="cls-2" d="M29.94,120.38H28.45v-4.09c0-.7-.27-1.05-.82-1.05l-1.42.56v4.58H24.72v-8.6h1.49v2.85l1.89-.85a1.65,1.65,0,0,1,1.42.58,2.65,2.65,0,0,1,.42,1.6Z"/><path class="cls-2" d="M36.7,117.47H32.89a2.32,2.32,0,0,0,.28,1.3,1.27,1.27,0,0,0,1.13.41.94.94,0,0,0,.81-.35,1.13,1.13,0,0,0,.26-.66h1.34a2.25,2.25,0,0,1-.66,1.79,2.57,2.57,0,0,1-1.74.57,3.6,3.6,0,0,1-1.67-.31c-.82-.41-1.23-1.53-1.23-3.34a3.41,3.41,0,0,1,.7-2.36,2.79,2.79,0,0,1,2.13-.75c1.65,0,2.48.92,2.48,2.76C36.72,116.73,36.71,117,36.7,117.47Zm-3.78-1h2.45a1.73,1.73,0,0,0-.28-1.1,1.08,1.08,0,0,0-.88-.34,1.26,1.26,0,0,0-.94.35A1.49,1.49,0,0,0,32.92,116.45Z"/><path class="cls-2" d="M44.87,118h1.35q0,.09,0,.33c0,.16,0,.27,0,.33s0,.15,0,.27a2.24,2.24,0,0,1,0,.27l-.08.22a1.7,1.7,0,0,1-1.12.94,3.55,3.55,0,0,1-1.22.2,3.05,3.05,0,0,1-1.15-.2,2.2,2.2,0,0,1-.81-.53,5.62,5.62,0,0,1,0-5.32,2.18,2.18,0,0,1,.81-.52,3.06,3.06,0,0,1,1.15-.21,2.59,2.59,0,0,1,1.87.62,2.26,2.26,0,0,1,.64,1.72H44.84a1,1,0,0,0-.25-.75,1.31,1.31,0,0,0-.93-.25.92.92,0,0,0-.9.42,2.82,2.82,0,0,0-.23,1.27v.6c0,.91.18,1.46.53,1.67a1.18,1.18,0,0,0,.63.15,2.15,2.15,0,0,0,.63-.08.55.55,0,0,0,.36-.26,1.07,1.07,0,0,0,.14-.36A4.12,4.12,0,0,0,44.87,118Z"/><path class="cls-2" d="M52.36,120.38h-1l-.45-.78-1.59.85a1.79,1.79,0,0,1-1.79-1,3.39,3.39,0,0,1-.31-1,6.9,6.9,0,0,1-.09-1.13c0-.4,0-.68,0-.87s0-.41.06-.65a3,3,0,0,1,.13-.63,3,3,0,0,1,.25-.52,1.24,1.24,0,0,1,.39-.43,2.35,2.35,0,0,1,1.33-.35h1.57l1.49-.09Zm-1.49-2.08v-3.06H49.74a.91.91,0,0,0-.88.48,3.32,3.32,0,0,0-.24,1.43,2.89,2.89,0,0,0,.23,1.35,1,1,0,0,0,.89.39Z"/><path class="cls-2" d="M57.84,113.88l-.41,1.46a1,1,0,0,0-.39-.07,3,3,0,0,0-1.41.49v4.62H54.14v-6.53h1.11l.35.57,1.57-.65h.31A.6.6,0,0,1,57.84,113.88Z"/><path class="cls-2" d="M64.13,117.47H60.32a2.32,2.32,0,0,0,.28,1.3,1.27,1.27,0,0,0,1.13.41.94.94,0,0,0,.81-.35,1.13,1.13,0,0,0,.26-.66h1.34a2.25,2.25,0,0,1-.66,1.79,2.55,2.55,0,0,1-1.74.57,3.63,3.63,0,0,1-1.67-.31c-.82-.41-1.23-1.53-1.23-3.34a3.41,3.41,0,0,1,.7-2.36,2.79,2.79,0,0,1,2.13-.75c1.65,0,2.48.92,2.48,2.76C64.15,116.73,64.14,117,64.13,117.47Zm-3.78-1H62.8a1.73,1.73,0,0,0-.28-1.1,1.08,1.08,0,0,0-.88-.34,1.26,1.26,0,0,0-.94.35A1.49,1.49,0,0,0,60.35,116.45Z"/><path class="cls-2" d="M76.76,113.85l-1.82,6.53H73.72l-1.25-4-1.25,4H70l-1.83-6.53h1.58l1,4.26,1-3.5c.12-.51.38-.76.78-.76a.59.59,0,0,1,.46.19,1.37,1.37,0,0,1,.28.57l1,3.5,1-4.26Z"/><path class="cls-2" d="M82.93,117.47h-3.8a2.32,2.32,0,0,0,.28,1.3,1.25,1.25,0,0,0,1.12.41.92.92,0,0,0,.81-.35,1.09,1.09,0,0,0,.27-.66H83a2.25,2.25,0,0,1-.66,1.79,2.57,2.57,0,0,1-1.74.57,3.67,3.67,0,0,1-1.68-.31c-.81-.41-1.22-1.53-1.22-3.34a3.36,3.36,0,0,1,.7-2.36,2.75,2.75,0,0,1,2.12-.75q2.49,0,2.49,2.76C83,116.73,83,117,82.93,117.47Zm-3.77-1h2.45a1.72,1.72,0,0,0-.29-1.1,1.06,1.06,0,0,0-.87-.34,1.23,1.23,0,0,0-.94.35A1.49,1.49,0,0,0,79.16,116.45Z"/><path class="cls-2" d="M92.25,118.58v.17a1.62,1.62,0,0,1-.73,1.29,2.93,2.93,0,0,1-1.64.44,3.07,3.07,0,0,1-2-.53,1.8,1.8,0,0,1-.54-1.42v-.14h1.35a.81.81,0,0,0,.28.72,1.7,1.7,0,0,0,.95.2c.61,0,.91-.22.91-.66a.78.78,0,0,0-.32-.74,1.15,1.15,0,0,0-.37-.13l-1.16-.2a1.9,1.9,0,0,1-.84-3.31,2.73,2.73,0,0,1,1.7-.51c1.56,0,2.34.68,2.34,2v.15H90.85a.93.93,0,0,0-.29-.74,1.2,1.2,0,0,0-.73-.19,1.13,1.13,0,0,0-.72.19.52.52,0,0,0-.24.41c0,.44.18.69.53.75l1.38.25A1.74,1.74,0,0,1,92.25,118.58Z"/><path class="cls-2" d="M98.94,120.38H97.45v-4.09c0-.7-.28-1.05-.82-1.05l-1.42.56v4.58H93.72v-8.6h1.49v2.85l1.89-.85a1.65,1.65,0,0,1,1.42.58,2.65,2.65,0,0,1,.42,1.6Z"/><path class="cls-2" d="M105.3,120.38h-1l-.46-.78-1.59.85a1.78,1.78,0,0,1-1.78-1,3.73,3.73,0,0,1-.32-1,8.23,8.23,0,0,1-.08-1.13c0-.4,0-.68,0-.87s0-.41.06-.65a3,3,0,0,1,.13-.63,3.91,3.91,0,0,1,.24-.52,1.48,1.48,0,0,1,.39-.43,2.38,2.38,0,0,1,1.34-.35h1.57l1.49-.09Zm-1.49-2.08v-3.06h-1.13a.91.91,0,0,0-.88.48,3.32,3.32,0,0,0-.24,1.43,2.76,2.76,0,0,0,.23,1.35,1,1,0,0,0,.89.39Z"/><path class="cls-2" d="M110.78,113.88l-.42,1.46a.94.94,0,0,0-.39-.07,3,3,0,0,0-1.4.49v4.62h-1.49v-6.53h1.11l.34.57,1.58-.65h.31A.6.6,0,0,1,110.78,113.88Z"/><path class="cls-2" d="M117.07,117.47h-3.81a2.32,2.32,0,0,0,.28,1.3,1.25,1.25,0,0,0,1.12.41,1,1,0,0,0,.82-.35,1.13,1.13,0,0,0,.26-.66h1.34a2.25,2.25,0,0,1-.66,1.79,2.57,2.57,0,0,1-1.74.57,3.6,3.6,0,0,1-1.67-.31c-.82-.41-1.23-1.53-1.23-3.34a3.36,3.36,0,0,1,.7-2.36,2.77,2.77,0,0,1,2.13-.75c1.65,0,2.48.92,2.48,2.76C117.09,116.73,117.08,117,117.07,117.47Zm-3.78-1h2.45a1.72,1.72,0,0,0-.29-1.1,1.06,1.06,0,0,0-.87-.34,1.24,1.24,0,0,0-.94.35A1.49,1.49,0,0,0,113.29,116.45Z"/></g></g></svg>