<svg xmlns="http://www.w3.org/2000/svg" viewBox="0 0 22 20"><defs><style>.cls-1{fill:#3d2a3d;}</style></defs><title>Fichier 1</title><g id="Calque_2" data-name="Calque 2"><g id="Calque_1-2" data-name="Calque 1"><path class="cls-1" d="M19.58,0H2.42A2.43,2.43,0,0,0,0,2.42V17.58A2.43,2.43,0,0,0,2.42,20H19.58A2.43,2.43,0,0,0,22,17.58V2.42A2.43,2.43,0,0,0,19.58,0ZM17.63,9.38a.91.91,0,0,1-.44-.82c0-.73,0-1.45,0-2.17,0-.1,0-.2,0-.31h-.07L17,6.23l-4.32,4.34a.95.95,0,1,1-1.34-1.34l3.06-3.08L15.81,4.7H13.38a1,1,0,1,1,0-1.91H18a1,1,0,0,1,1,1.05c0,1.29,0,2.57,0,3.86,0,.29,0,.59,0,.88A1,1,0,0,1,17.63,9.38Z"/></g></g></svg>