<svg xmlns="http://www.w3.org/2000/svg" viewBox="0 0 22 20"><defs><style>.cls-1{fill:#3d2a3d;}</style></defs><title>Fichier 2</title><g id="Calque_2" data-name="Calque 2"><g id="Calque_1-2" data-name="Calque 1"><path class="cls-1" d="M19.58,0H2.42A2.43,2.43,0,0,0,0,2.42V17.58A2.43,2.43,0,0,0,2.42,20H19.58A2.43,2.43,0,0,0,22,17.58V2.42A2.43,2.43,0,0,0,19.58,0ZM10.69,10.74,7.63,13.82,6.19,15.27H8.62a1,1,0,1,1,0,1.91H4a1,1,0,0,1-1-1.05c0-1.29,0-2.57,0-3.86,0-.29,0-.59,0-.88a1,1,0,0,1,1.47-.81.94.94,0,0,1,.45.82c0,.72,0,1.45,0,2.17,0,.1,0,.2,0,.3l.08,0L5,13.74,9.35,9.4a.95.95,0,1,1,1.34,1.34Z"/></g></g></svg>