<svg xmlns="http://www.w3.org/2000/svg" viewBox="0 0 128 128"><defs><style>.cls-1{fill:#0a8e8a;}.cls-2{fill:#ffdebb;}.cls-3{fill:#ffb776;}.cls-4{fill:#3d2a3d;}.cls-5{fill:#fff;}.cls-6{fill:#ff826e;}.cls-7{fill:#919191;}</style></defs><title>Fichier 4</title><g id="Calque_2" data-name="Calque 2"><g id="Calque_1-2" data-name="Calque 1"><g id="Layer_9" data-name="Layer 9"><path class="cls-1" d="M128,64A64,64,0,1,1,64,0,64,64,0,0,1,128,64Z"/></g><g id="Layer_7" data-name="Layer 7"><path class="cls-2" d="M29,55.16c.34,4.08,3.12,5.19,6.18,2.47L50.42,44c3.06-2.73,2.44-6.19-1.36-7.72L33.54,30.17c-3.8-1.51-6.64.59-6.27,4.68Z"/><path class="cls-3" d="M33.25,53.66c.23,2.75,2.13,3.48,4.18,1.67l10.29-9.19c2.07-1.85,1.65-4.2-.93-5.22L36.32,36.75c-2.58-1-4.48.39-4.26,3.15Z"/><path class="cls-2" d="M96,55.16c-.34,4.08-3.12,5.19-6.19,2.47L74.56,44c-3.06-2.73-2.44-6.19,1.36-7.72l15.52-6.15c3.8-1.51,6.64.59,6.27,4.68Z"/><path class="cls-3" d="M91.72,53.66c-.22,2.75-2.12,3.48-4.17,1.67L77.26,46.11c-2.08-1.84-1.65-4.2.93-5.22l10.47-4.17c2.58-1,4.48.4,4.25,3.15Z"/><path class="cls-2" d="M62.48,93.77c16.25,0,30.29-7,37-17-6.73-10.07-20.77-17-37-17s-30.3,7-37,17C32.21,86.82,46.25,93.77,62.48,93.77Z"/><path class="cls-2" d="M92.29,88.38V63.13c0-14.61-13.22-26.44-29.5-26.44S33.28,48.52,33.28,63.13V88.38Z"/><circle class="cls-4" cx="52.69" cy="63.7" r="3.12"/><circle class="cls-4" cx="72.26" cy="63.7" r="3.12"/><path class="cls-3" d="M64.77,51.22V36.72c-.56-.06-1.47-.09-2.27-.09s-1.7,0-2.27.09v14.5A2.27,2.27,0,1,0,64.77,51.22Z"/><path class="cls-3" d="M49.85,51.58c.77,3,5.36,1.71,4.6-1.27a19.2,19.2,0,0,1,1.33-13,35.32,35.32,0,0,0-5.73,1.76A24.23,24.23,0,0,0,49.85,51.58Z"/><path class="cls-3" d="M70.5,50.31c-.76,3,3.83,4.25,4.6,1.27a23.9,23.9,0,0,0-.2-12.48,30.24,30.24,0,0,0-5.73-1.76A18.75,18.75,0,0,1,70.5,50.31Z"/><path class="cls-2" d="M62.48,98.59c15.37,0,28.65-5,35-12.2-6.35-7.23-19.66-12.2-35-12.2s-28.66,5-35,12.2C33.82,93.63,47.13,98.59,62.48,98.59Z"/><path class="cls-5" d="M76.12,82.28a7.22,7.22,0,0,1-7.23,7.23H56.12a7.22,7.22,0,0,1-7.23-7.23h0a7.22,7.22,0,0,1,7.23-7.23H68.89a7.22,7.22,0,0,1,7.23,7.23Z"/><ellipse class="cls-5" cx="62.48" cy="75.9" rx="9.5" ry="7.66"/><path class="cls-4" d="M67.61,82.05a5.25,5.25,0,0,1-10.5,0c0-1.81-2.86-1.81-2.81,0a8.21,8.21,0,0,0,8.06,8.06c4.46.11,7.94-3.75,8.06-8.06.06-1.81-2.75-1.78-2.81,0Z"/><path class="cls-6" d="M68.94,73c0,1.85-6.55,5.42-6.55,5.42S55.84,74.88,55.84,73s2.95-2.29,6.55-2.29S68.94,71.16,68.94,73Z"/><path class="cls-7" d="M64.21,84.89a1.45,1.45,0,0,1-1.56,1.28h0a1.47,1.47,0,0,1-1.57-1.28V78.14a1.45,1.45,0,0,1,1.57-1.28h0a1.47,1.47,0,0,1,1.56,1.28Z"/></g></g></g></svg>