<svg xmlns="http://www.w3.org/2000/svg" viewBox="0 0 128 128"><defs><style>.cls-1{fill:#43b06d;}.cls-2{fill:#3d2a3d;}.cls-3{fill:#9ec853;}.cls-4{fill:#6b4a6b;}</style></defs><title>Fichier 1</title><g id="Calque_2" data-name="Calque 2"><g id="Calque_1-2" data-name="Calque 1"><g id="Layer_9" data-name="Layer 9"><path class="cls-1" d="M128,64A64,64,0,1,1,64,0,64,64,0,0,1,128,64Z"/></g><g id="Layer_7" data-name="Layer 7"><path class="cls-2" d="M70.53,80.85,88,98.35A7.25,7.25,0,1,0,98.28,88.1L80.78,70.6Z"/><circle class="cls-2" cx="58.64" cy="58.8" r="31.8"/><path class="cls-3" d="M76.73,40.73a25.56,25.56,0,1,1-36.15,0A25.58,25.58,0,0,1,76.73,40.73Z"/><path class="cls-4" d="M69.5,65.23a5.34,5.34,0,0,1-5.35,5.32h-11a5.37,5.37,0,0,1-5.4-5.32v0A5.32,5.32,0,0,1,53.2,60H64.13a5.29,5.29,0,0,1,5.4,5.2v0Z"/><path class="cls-4" d="M63.88,61.25C63.88,65,61.48,68,58.5,68s-5.37-3-5.37-6.73,2.4-6.72,5.37-6.72S63.88,57.55,63.88,61.25Z"/><path class="cls-4" d="M68.15,50.63A4.15,4.15,0,1,1,64,46.48,4.14,4.14,0,0,1,68.15,50.63Z"/><path class="cls-4" d="M57.15,50.63A4.15,4.15,0,1,1,53,46.48,4.14,4.14,0,0,1,57.15,50.63Z"/><path class="cls-4" d="M49.23,57.78a3.48,3.48,0,1,1-3.48-3.48A3.47,3.47,0,0,1,49.23,57.78Z"/><path class="cls-4" d="M74.78,57.78A3.48,3.48,0,1,1,71.3,54.3,3.47,3.47,0,0,1,74.78,57.78Z"/></g></g></g></svg>