<svg xmlns="http://www.w3.org/2000/svg" viewBox="0 0 128 128"><defs><style>.cls-1{fill:#3d2a3d;}.cls-2{fill:#fff;}.cls-3{fill:#db4646;}</style></defs><title>Fichier 2</title><g id="Calque_2" data-name="Calque 2"><g id="Calque_1-2" data-name="Calque 1"><g id="Layer_9" data-name="Layer 9"><path class="cls-1" d="M128,64A64,64,0,1,1,64,0,64,64,0,0,1,128,64Z"/></g><g id="Layer_7" data-name="Layer 7"><path class="cls-2" d="M100.75,91.28A10.72,10.72,0,0,1,90,102H38.23A10.72,10.72,0,0,1,27.5,91.28V60A10.72,10.72,0,0,1,38.23,49.25H90A10.72,10.72,0,0,1,100.75,60v31.3Z"/><path class="cls-1" d="M77.25,86.63A6.37,6.37,0,0,1,70.88,93H57.63a6.37,6.37,0,0,1-6.38-6.37h0a6.37,6.37,0,0,1,6.38-6.38H70.88a6.37,6.37,0,0,1,6.37,6.38Z"/><path class="cls-1" d="M70.75,81.73c0,4.5-2.92,8.12-6.5,8.12s-6.5-3.65-6.5-8.12,2.93-8.13,6.5-8.13S70.75,77.23,70.75,81.73Z"/><path class="cls-1" d="M75.93,68.85a5,5,0,1,1-5-5A5,5,0,0,1,75.93,68.85Z"/><path class="cls-1" d="M62.63,68.85a5,5,0,1,1-5-5A5,5,0,0,1,62.63,68.85Z"/><path class="cls-1" d="M53,77.53a4.23,4.23,0,1,1-4.22-4.23A4.21,4.21,0,0,1,53,77.53Z"/><path class="cls-1" d="M83.93,77.53A4.23,4.23,0,1,1,79.7,73.3,4.22,4.22,0,0,1,83.93,77.53Z"/><path class="cls-3" d="M101,58.25l-9.5-26a10.58,10.58,0,0,0-9.25-6.45h-36A10.54,10.54,0,0,0,37,32.2L27.5,58.25Z"/><path class="cls-2" d="M69,52.53a2.72,2.72,0,0,1-2.72,2.72H62a2.73,2.73,0,0,1-2.73-2.72V33A2.74,2.74,0,0,1,62,30.25h4.3A2.73,2.73,0,0,1,69,33Z"/><path class="cls-2" d="M76.75,44.78A2.72,2.72,0,0,1,74,47.5H54.48a2.73,2.73,0,0,1-2.73-2.72v-4.3a2.74,2.74,0,0,1,2.73-2.73H74a2.73,2.73,0,0,1,2.72,2.73Z"/></g></g></g></svg>