<svg xmlns="http://www.w3.org/2000/svg" viewBox="0 0 122.87 126.31"><defs><style>.cls-1{fill:#d69367;}.cls-2{fill:#31190f;}.cls-3{fill:#9bd300;}.cls-4{fill:#c37e4d;}.cls-5{fill:#1d1d1b;}.cls-6{fill:#b1b2b2;}.cls-7{fill:#1d1e1c;}</style></defs><title>Fichier 1</title><g id="Calque_2" data-name="Calque 2"><g id="Calque_1-2" data-name="Calque 1"><g id="Layer_2" data-name="Layer 2"><path class="cls-1" d="M71.53,70.8c-.16,5.19-1,13.52-1.48,18.25,0,0,7.73,4.46,14.3-.58l.5-.67c-.13-5.45-.48-12.43-1-17.86Z"/><path class="cls-2" d="M95.06,11.7c2.76-1.63,6.2.54,8.17,3s2.57,5.76,2.93,8.91a85.51,85.51,0,0,1-.36,22.26L105.57,48l-6.6,4-3.39-6.43.2-17.74-6.15-8.64,5.43-7.35"/><path class="cls-2" d="M57.45,28.92A13.37,13.37,0,0,1,54,19.34a22.17,22.17,0,0,1,2.49-8.71A17.8,17.8,0,0,1,62.82,3,18.65,18.65,0,0,1,70.5.67a34.74,34.74,0,0,1,15.77,1.6c4.3,1.55,8.64,4.86,8.79,9.43a68.51,68.51,0,0,1-4.53,7.15"/><path class="cls-1" d="M62.84,19.25C57.7,23.16,57,34.08,57,34.08a83.58,83.58,0,0,0,.15,17.75,30.63,30.63,0,0,0,1.59,7.4A19.4,19.4,0,0,0,74.69,71.41c5.1.3,10-1.61,14-3.42a15.12,15.12,0,0,0,3.37-2.22,18.06,18.06,0,0,0,2.76-2.63c1.83-2.31,4.18-5.43,6-7.74.26,1,1.78,1.65,2.76,1.84a5.87,5.87,0,0,0,3.53-.42,5.59,5.59,0,0,0,2.76-2.22,7.9,7.9,0,0,0,1.19-2.76,4.6,4.6,0,0,0-8.45-3.33c-.82.92-1.9,1.84-3.07,1.57S98,48.39,97.88,47.23c-.72-5.79,1.19-13.92-.92-19.37A24.44,24.44,0,0,0,95,23.48c-.8-1.3-2.2-2.55-3-3.85-4-2.6-9.27-2.54-14-1.89s-7.18,2.9-15.14,1.51"/><path class="cls-3" d="M122.21,122.74l-4.53-19.41c-.66-2.81-1.62-6.91-3.29-9.27-2.29-2.21-5.82-2.26-8.94-2.85a46.06,46.06,0,0,1-7.59-2.38l-4.08-1.54h-.13c-1.53-.7-3.89-1.7-5.42-2.4l-.1.12A15.85,15.85,0,0,1,80,90.46,13.91,13.91,0,0,1,70.9,89.4a6.8,6.8,0,0,1-3.22-2.82c-1.76.63-5.42,1.73-6.92,2.83a129.3,129.3,0,0,0-16.63,6.71c-4.77,8.19-9.83,17.62-12.87,26.61l14.09,1.62,62.59-.92Z"/><path class="cls-2" d="M70.8,70.47a10.5,10.5,0,0,1-.68-3.14,1.57,1.57,0,0,1,.17-.92A1.32,1.32,0,0,1,70.9,66a2,2,0,0,1,2.52,1.23c.1.25.21.6.48.59s.29-.14.4-.26a2.7,2.7,0,0,1,1.84-.86.68.68,0,0,1,.69.54,6,6,0,0,1-1.24,4.25"/><path class="cls-2" d="M87.68,31.27a3.68,3.68,0,0,0-6.28-2.83c-.8.79-1.1,2.31-.16,2.92a2.62,2.62,0,0,0,1,.38c1.64.24,3.94.32,5.4-.47"/><path class="cls-2" d="M59.46,32a3.68,3.68,0,0,1,6.28-2.82c.8.79,1.09,2.31.16,2.91a2.62,2.62,0,0,1-1,.38c-1.63.25-4,.32-5.4-.47"/><path class="cls-4" d="M72.86,44.69a4.84,4.84,0,0,0-.23-1,2.57,2.57,0,0,0-.92-1.84c-.86-.51-1.95.15-2.58.92a9.74,9.74,0,0,0-1.71,6.43,4.37,4.37,0,0,0,.67,2.49,2.47,2.47,0,0,0,3.2.53A4.37,4.37,0,0,0,72.81,49,24.94,24.94,0,0,0,72.86,44.69Z"/><path class="cls-5" d="M60.13,89.84c.67,2.47,2.94,4.27,4.91,5.72a21.06,21.06,0,0,0,7.59,3.74A18.57,18.57,0,0,0,94.34,87.76c.29-.8-1-1.14-1.27-.35a17.53,17.53,0,0,1-11,10.41,17.84,17.84,0,0,1-15.21-2.55c-2-1.4-4.75-3.23-5.43-5.74a.66.66,0,0,0-1.27.35Z"/><path class="cls-5" d="M108.54,123.63c1.66-4.95,1.95-10.19,2.85-15.29A71.28,71.28,0,0,1,115,94.55c.3-.79-.92-1.13-1.27-.35A72.13,72.13,0,0,0,110.07,108c-.92,5.1-1.18,10.34-2.85,15.29-.27.81,1,1.15,1.27.35Z"/><path class="cls-5" d="M46,124.35c.42-9.35-2.16-18.62-1.13-28,.09-.85-1.22-.84-1.31,0-1.05,9.35,1.52,18.61,1.12,28a.66.66,0,0,0,1.31,0Z"/><path class="cls-5" d="M122.85,122.82l-3.09-13.18c-.92-3.76-1.6-7.63-2.81-11.3a13.63,13.63,0,0,0-2-4.34,7.77,7.77,0,0,0-4-2.21c-1.66-.45-3.37-.6-5-.92A36.68,36.68,0,0,1,100,89.19c-2.09-.76-4.18-1.56-6.25-2.3-1.6-.57-3.5-1.54-5.16-2.3a.7.7,0,0,0-.8.1,14.45,14.45,0,0,1-9.12,5.6c-3.45.43-8.55-.44-10.39-3.79a.67.67,0,0,0-.75-.29l-3.93,1.38c-1.3.46-2.52,1.29-3.84,1.73a117.28,117.28,0,0,0-11,4.24c-.92.38-1.74.78-2.62,1.18A8.51,8.51,0,0,0,43.64,96a11.7,11.7,0,0,0-1.24,2.1l-1.51,2.67c-1.89,3.34-3.68,6.73-5.36,10.2a109.93,109.93,0,0,0-5,11.86c-.27.81,1,1.15,1.27.35a130,130,0,0,1,9.34-20.23c.88-1.6,1.79-3.18,2.7-4.75A6.41,6.41,0,0,1,44.56,97a3.54,3.54,0,0,1,1-.6q1.38-.65,2.76-1.26,5.33-2.39,10.84-4.27A12.46,12.46,0,0,0,61.56,90a13.43,13.43,0,0,1,2-.92c1.42-.56,2.88-1,4.32-1.53l-.72-.35c2,3.68,7.35,4.83,11.13,4.48a15.53,15.53,0,0,0,10.45-6l-.79.1c3.11,1.42,6.23,2.67,9.43,3.87,1.84.7,3.68,1.41,5.57,2a45.86,45.86,0,0,0,5.32,1A12.5,12.5,0,0,1,113,94.05c1.41.88,2,2.59,2.54,4.08a102.82,102.82,0,0,1,2.75,10.76l3.32,14.32c.2.82,1.47.47,1.28-.35Z"/><path class="cls-5" d="M71.3,69.88a6.5,6.5,0,0,1-.45-1.52,4.17,4.17,0,0,1-.08-.71,1,1,0,0,1,.09-.62,1,1,0,0,1,.79-.23,1.46,1.46,0,0,1,.92.44,4.65,4.65,0,0,1,.46.92,1,1,0,0,0,1.36.43l0,0c.39-.24.61-.64,1-.82A1.67,1.67,0,0,1,76,67.6c.12,0,.1-.06.15,0a1.74,1.74,0,0,1,.08.68,3.1,3.1,0,0,1-.1.68,2.91,2.91,0,0,1-.68,1.3c-.58.61.34,1.55.91.92a4.25,4.25,0,0,0,1.14-3.36,1.56,1.56,0,0,0-1-1.52,2.58,2.58,0,0,0-1.84.32,3.28,3.28,0,0,0-.71.51c-.07.06-.27.21-.29.3h.45l0-.14a2.74,2.74,0,0,0-1-1.36A2.51,2.51,0,0,0,70,66a2.38,2.38,0,0,0-.47,2.13,8.14,8.14,0,0,0,.66,2.36.66.66,0,0,0,.93,0A.64.64,0,0,0,71.3,69.88Z"/><path class="cls-5" d="M79.63,45.33a5.12,5.12,0,0,1,3.28-3.09,1.64,1.64,0,0,1,1.75.85,5.73,5.73,0,0,1,.65,2.5.67.67,0,0,0,.66.65.65.65,0,0,0,.66-.64h0a6.83,6.83,0,0,0-.92-3.33A3,3,0,0,0,83,40.9a5.53,5.53,0,0,0-2.88,1.47A6.85,6.85,0,0,0,78.39,45a.67.67,0,0,0,.46.81.66.66,0,0,0,.81-.46Z"/><path class="cls-5" d="M64.83,46.42V44.8a10.55,10.55,0,0,0,0-1.59,2.37,2.37,0,0,0-1.39-1.83,3.09,3.09,0,0,0-2.22-.11,3.4,3.4,0,0,0-1.84,1.58,5.87,5.87,0,0,0-.71,2.87.65.65,0,0,0,.65.65.66.66,0,0,0,.66-.65,5.05,5.05,0,0,1,.35-1.84c.07-.15.15-.3.23-.45s.17-.24.26-.35a2.18,2.18,0,0,1,.64-.49h.09l.19-.05h.87l.23.06h.08l.17.09.15.1c-.11-.08,0,0,.07.07s.14.16.1.1l.08.12v.1h0a2.73,2.73,0,0,0,.08.34,7.84,7.84,0,0,1,0,1.37v1.57a.65.65,0,0,0,.73.58.64.64,0,0,0,.58-.58Z"/><path class="cls-5" d="M88.34,31.53a4.49,4.49,0,0,0-1.91-3.79,4.35,4.35,0,0,0-4.19-.35A3.44,3.44,0,0,0,80,30.55a2.07,2.07,0,0,0,1,1.7,5.11,5.11,0,0,0,2.2.52A8.72,8.72,0,0,0,88,32.1c.74-.39.08-1.52-.67-1.13a6.67,6.67,0,0,1-3.27.54,12.79,12.79,0,0,1-1.63-.13,2.53,2.53,0,0,1-.75-.24,1,1,0,0,1-.23-.18s-.11-.19-.09-.14c-.3-.77.33-1.65,1.06-2.07a3.07,3.07,0,0,1,2.94-.1A3.14,3.14,0,0,1,87,31.53a.66.66,0,0,0,1.32,0Z"/><path class="cls-5" d="M95.4,12.53c2.7-1.51,5.86.92,7.45,3,1.83,2.49,2.36,5.7,2.7,8.71A85.75,85.75,0,0,1,105.16,46c-.12.82,1.15,1.18,1.27.35a86.41,86.41,0,0,0,.7-19.15c-.4-5.29-.92-11.14-5.44-14.63-2-1.55-4.6-2.48-7-1.16-.74.4-.08,1.54.67,1.13Z"/><path class="cls-5" d="M57.92,28.72c-3.36-3.44-3.85-8.65-2.59-13.09,1.31-4.6,4-9.81,8.4-12.17a19.65,19.65,0,0,1,7.48-1.95,37.52,37.52,0,0,1,8.34.09c4.66.58,9.93,2.1,13,5.86a7.93,7.93,0,0,1,1.63,3.12,2,2,0,0,1,0,1.54c-.22.39-.44.77-.68,1.15C92.42,15.11,91.23,17,90,18.79c-.49.7.65,1.35,1.14.67,1.27-1.78,2.45-3.68,3.58-5.51a4.1,4.1,0,0,0,1-2.51,8.44,8.44,0,0,0-1-3.16C92.29,3.76,86.85,1.63,82.1.69A36.3,36.3,0,0,0,72.91.06a26.32,26.32,0,0,0-8.55,1.65c-5,2.07-8,7.07-9.79,12C52.63,19,52.81,25.4,57,29.65a.65.65,0,0,0,.92-.92Z"/><path class="cls-5" d="M60.11,32.26a3.15,3.15,0,0,1,1.29-2.67,3.09,3.09,0,0,1,3-.28,2.12,2.12,0,0,1,1.42,2,.71.71,0,0,1-.16.4l-.13.1a1.59,1.59,0,0,1-.4.18,6.88,6.88,0,0,1-1.62.23,7.25,7.25,0,0,1-3.68-.52c-.75-.4-1.42.73-.66,1.13a8.26,8.26,0,0,0,4.33.71c1.32-.08,3.18-.2,3.6-1.75a3.21,3.21,0,0,0-1.65-3.43,4.35,4.35,0,0,0-6.57,3.9.66.66,0,0,0,1.32,0Z"/><rect class="cls-5" x="63.16" y="90.75" width="7.59" height="1.51" transform="translate(-40.4 55.02) rotate(-35.04)"/><rect class="cls-5" x="67.82" y="93.31" width="7.72" height="1.51" transform="translate(-43.84 119.41) rotate(-65.07)"/><rect class="cls-5" x="74.06" y="94.34" width="8.11" height="1.51" transform="translate(-18.82 170.92) rotate(-88.63)"/><rect class="cls-5" x="82.66" y="89.68" width="1.51" height="7.9" transform="matrix(0.94, -0.33, 0.33, 0.94, -26.26, 32.83)"/><rect class="cls-5" x="87.24" y="87.04" width="1.51" height="7.04" transform="translate(-38.26 89.01) rotate(-45.12)"/><path class="cls-5" d="M70.7,89.33c.66-6.07,1.3-12.16,1.48-18.26a.66.66,0,0,0-1.31,0c-.18,6.1-.83,12.19-1.48,18.26C69.3,90.16,70.61,90.16,70.7,89.33Z"/><path class="cls-5" d="M85.51,88.08c-.15-6-.44-12-1-17.88-.08-.83-1.39-.83-1.31,0,.57,5.94.86,12,1,17.88a.67.67,0,0,0,1.33,0Z"/><path class="cls-5" d="M64.25,57c2,2.26,4.38,4.59,7.61,4.38a11.24,11.24,0,0,0,4.33-1.43c1.54-.8,3-1.69,4.49-2.61.71-.46,0-1.6-.66-1.14-1.23.77-2.47,1.51-3.74,2.2A12.2,12.2,0,0,1,72.17,60c-3,.41-5.2-1.89-7-4-.55-.65-1.48.28-.92.92Z"/><path class="cls-5" d="M73.55,45a6.12,6.12,0,0,0-.83-2.83,2.09,2.09,0,0,0-2.54-.68c-1.92.77-2.87,3.14-3.19,5a14.1,14.1,0,0,0-.19,3.11,4.64,4.64,0,0,0,.92,2.92,3.09,3.09,0,0,0,4.37.23c.11-.1.21-.21.31-.32a6,6,0,0,0,1.06-3A25,25,0,0,0,73.55,45c0-.85-1.35-.85-1.31,0A18,18,0,0,1,72,50.28,2.74,2.74,0,0,1,70.92,52a1.85,1.85,0,0,1-1.74,0c-1.33-.68-1.13-2.76-1.05-4.05a8,8,0,0,1,1.44-4.43c.37-.48,1.23-1.3,1.84-.86a1.64,1.64,0,0,1,.5.92,9.67,9.67,0,0,1,.28,1.32C72.28,45.78,73.6,45.79,73.55,45Z"/><path class="cls-5" d="M62.38,19c-3.67,2.89-5,8.19-5.69,12.6a77,77,0,0,0-.49,17.1c.3,3.88.68,7.94,2.2,11.56a19.54,19.54,0,0,0,5.52,7.42,20,20,0,0,0,8.16,4.14,20.72,20.72,0,0,0,10.82-.7A50.24,50.24,0,0,0,88.49,69a18.76,18.76,0,0,0,5.14-3.49,30.75,30.75,0,0,0,3.76-4.45c1.3-1.67,2.58-3.34,3.89-5l-1.1-.29a4.18,4.18,0,0,0,3,2.29,6.91,6.91,0,0,0,5-.8c2.76-1.46,4.42-5.16,3.14-8.07a5.26,5.26,0,0,0-6.91-2.71l-.23.11A5.14,5.14,0,0,0,102.49,48a5,5,0,0,1-2,1.78c-1.93.55-2-2.63-2.06-3.8-.18-3.55.24-7.1.24-10.65a26.26,26.26,0,0,0-.41-5.08,23.22,23.22,0,0,0-1.69-4.87,20.07,20.07,0,0,0-3.15-4.6c-.29-.35-.53-.82-.84-1.14a4.41,4.41,0,0,0-.92-.63,13.14,13.14,0,0,0-2.33-1,23.71,23.71,0,0,0-10.56-.67c-6.31.78-14,4.11-19.73-.18-.68-.51-1.34.64-.67,1.13,4.67,3.5,11,2.22,16.27,1.12a40.58,40.58,0,0,1,8.58-1,19.33,19.33,0,0,1,4.91.63,12.69,12.69,0,0,1,2.33.92,4.57,4.57,0,0,1,1.77,1.49,22,22,0,0,1,3.1,4.38A21.91,21.91,0,0,1,97,30.62a41.71,41.71,0,0,1,.2,9.8c-.08,1.63-.15,3.26-.11,4.89a10.94,10.94,0,0,0,.59,4,2.62,2.62,0,0,0,2.82,1.78c1.54-.25,2.27-1.57,3.29-2.55a4,4,0,0,1,6.64,3.8,6,6,0,0,1-3.76,4.22,5.11,5.11,0,0,1-3.07.24c-.72-.18-1.84-.6-2.1-1.37-.14-.41-.76-.71-1.09-.29-2.06,2.61-4,5.3-6.12,7.87a19.63,19.63,0,0,1-4.09,3.68A23.9,23.9,0,0,1,85.36,69c-3.36,1.3-7,2.35-10.67,2.05a17.88,17.88,0,0,1-8.44-3.12,18.79,18.79,0,0,1-6-6.72c-1.7-3.24-2.2-6.92-2.55-10.55A82.46,82.46,0,0,1,57.82,33c.55-4.49,1.75-10.12,5.52-13,.67-.53-.27-1.46-.92-.92Z"/><path class="cls-6" d="M10.18,112.79c-1.62,4.6-3.63,9-5.37,13.52H27.86c-1-8.27-2.14-16.55-3.17-24.82a.74.74,0,0,1,0-.21l-11.77-.21a.61.61,0,0,1,0,.19A50.7,50.7,0,0,1,10.18,112.79Z"/><path class="cls-7" d="M28.6,126.31h.5q-.69-5.43-1.37-10.91-.86-6.95-1.73-13.89c-.09-.75-1.16-.82-1.29-.21h.79Z"/><path class="cls-7" d="M5.1,124c3-7.49,6.52-14.91,7.35-22.92H13c-.13-.64-1.23-.57-1.3.19-.92,8.87-5.11,16.8-8.27,25h.8C4.46,125.54,4.76,124.77,5.1,124Z"/><path class="cls-7" d="M27.86,126.31h.74l-3.1-25h-.79a.74.74,0,0,0,0,.21C25.75,109.78,26.82,118.05,27.86,126.31Z"/><path class="cls-7" d="M5.1,124c-.32.77-.62,1.54-.92,2.31H4.8c1.74-4.52,3.75-9,5.37-13.52a50.7,50.7,0,0,0,2.76-11.51.6.6,0,0,0,0-.19h-.5C11.62,109.09,8.06,116.51,5.1,124Z"/><path class="cls-6" d="M33.1,86.07c-.48-3.07-3.18-5.29-5.94-6.71-3.59-1.84-7.83-2.82-11.69-1.66a18.65,18.65,0,0,0-7.21,4.59c-2.37,2.21-4.58,5-4.53,8.14a9.45,9.45,0,0,0,2,5.06c4.08,5.72,12,8.6,18.64,6.28s10.52-8.9,8.77-15.7"/><path class="cls-6" d="M4.11,88a48.1,48.1,0,0,1-1.3-8.27A12.86,12.86,0,0,1,4.6,72.64,1.3,1.3,0,0,1,5.39,72a1.35,1.35,0,0,1,.85.2,18.7,18.7,0,0,1,7.15,6.26"/><path class="cls-6" d="M33,85.67c-.25-4-.1-8.48-.6-12.51a5.66,5.66,0,0,0-.58-2.2A2,2,0,0,0,30,69.84a2.68,2.68,0,0,0-1.41.76c-2.47,2.11-3.51,4.34-4.65,7.18"/><path class="cls-7" d="M33.59,85.51c-.53-2.93-2.76-5.09-5.25-6.55A18.93,18.93,0,0,0,19,76.2a14.26,14.26,0,0,0-8.88,3.17c-2.44,1.84-5,4.15-6.31,7C1.05,92.13,6,98,10.88,100.64a16.59,16.59,0,0,0,16,.27,13.8,13.8,0,0,0,6.7-15.4.67.67,0,0,0-.86-.37.65.65,0,0,0-.41.72A12.29,12.29,0,0,1,28,98.6a14.7,14.7,0,0,1-14.11,1.93,16.68,16.68,0,0,1-6.26-4c-1.94-2-3.78-4.82-3.23-7.74C4.9,86,7,83.86,9,82a16.17,16.17,0,0,1,7.41-4.28,15.67,15.67,0,0,1,10,1.68c2.68,1.34,5.37,3.35,5.93,6.44.15.83,1.41.48,1.27-.35Z"/><path class="cls-7" d="M22.85,90A9,9,0,0,0,23,92.12a2.69,2.69,0,0,0,1.39,1.78,2.57,2.57,0,0,0,2.38-.08A3.51,3.51,0,0,0,28.3,92a7,7,0,0,0,.33-2.91.68.68,0,0,0-.66-.66.66.66,0,0,0-.65.66v1.07a4.91,4.91,0,0,1-.14,1,4.5,4.5,0,0,1-.16.48v.09l-.13.23a2,2,0,0,1-.47.54l-.14.09-.17.1H26c-.1,0,.07,0,0,0l-.28.19h-.38l-.25-.08H25l-.2-.12h-.07a1,1,0,0,1-.18-.18l-.07-.07h0l-.11-.19c-.05-.1,0,0,0-.07a1.55,1.55,0,0,0-.07-.23,3.1,3.1,0,0,0-.08-.42h0V90.05a.66.66,0,0,0-1.32,0Z"/><path class="cls-7" d="M17.15,89.82c-.27,1.11-.19,2.26-.5,3.36a2.27,2.27,0,0,1-1.3,1.67,1.85,1.85,0,0,1-1.92-.92,6.47,6.47,0,0,1-.68-2.9.67.67,0,0,0-.65-.66.66.66,0,0,0-.66.65h0c.15,1.84.48,4.08,2.41,4.93a2.61,2.61,0,0,0,2.6-.2A3.93,3.93,0,0,0,17.9,93.6c.32-1.11.24-2.3.52-3.43C18.62,89.35,17.35,89,17.15,89.82Z"/><path class="cls-7" d="M19.7,95h0v-.26l.06-.15h0l.1-.13h0l.13-.1h-.06l.15-.07h0l.16.07h-.06l.14.1h0l.1.14v0l.08.17a.06.06,0,0,1,0-.06v.3h0a.57.57,0,0,0,0-.26.54.54,0,0,0-.09-.25.35.35,0,0,0-.16-.18.57.57,0,0,0-.23-.12h-.18a.57.57,0,0,0-.33.09l-.13.1a.68.68,0,0,0-.17.28.86.86,0,0,0,0,.45.77.77,0,0,0,.08.19h0l.11.15a1,1,0,0,0,.2.15l.24.09h.55a.56.56,0,0,0,.24-.1.8.8,0,0,0,.21-.15A.88.88,0,0,0,21,95a1.19,1.19,0,0,0,0-.46.78.78,0,0,0-.12-.22.52.52,0,0,0-.19-.17.43.43,0,0,0-.24-.08.57.57,0,0,0-.26,0l-.17.07a.84.84,0,0,0-.23.23l-.06.16a.55.55,0,0,0,0,.36Z"/><path class="cls-7" d="M19.46,95.73l.13,1.6a.63.63,0,0,0,.2.47.61.61,0,0,0,.46.2.67.67,0,0,0,.66-.67h0l-.14-1.6a.67.67,0,0,0-.66-.67h0a.72.72,0,0,0-.46.2A.59.59,0,0,0,19.46,95.73Z"/><path class="cls-7" d="M17.13,98a5.77,5.77,0,0,0,7-1.84.65.65,0,0,0-.22-.9h0a.68.68,0,0,0-.92.23,4.41,4.41,0,0,1-5.18,1.33.67.67,0,0,0-.92.24h0a.68.68,0,0,0,.23.92Z"/><path class="cls-7" d="M4.65,87.45c-.85-4-1.94-8.27-.78-12.28a11.63,11.63,0,0,1,.62-1.61c.1-.2.21-.41.32-.6.2-.36.25-.53.65-.59A3.07,3.07,0,0,1,6.9,73a13.16,13.16,0,0,1,1.3.85,17.89,17.89,0,0,1,4.47,4.59c.47.7,1.62,0,1.14-.66a19.56,19.56,0,0,0-5.16-5.18c-.86-.65-2.3-1.77-3.41-1.66s-1.62,1.36-2,2.22c-2.15,4.69-.92,9.86.14,14.71.17.82,1.44.47,1.27-.35Z"/><path class="cls-7" d="M33.55,85.3c-.16-2.82-.15-5.65-.27-8.47-.07-1.43-.17-2.87-.35-4.29a4.84,4.84,0,0,0-1.17-3c-1.93-1.84-4.11.28-5.39,1.84a21.27,21.27,0,0,0-3.21,5.83c-.32.79.92,1.13,1.27.35a20.1,20.1,0,0,1,2.63-5,11.31,11.31,0,0,1,2-2.07c1.14-.85,2.06,0,2.37,1.17A31,31,0,0,1,32,78.33c.07,2.34.08,4.67.22,7,0,.84,1.37.84,1.31,0Z"/><path class="cls-7" d="M5.52,94.88A38.81,38.81,0,0,0,.31,97.46.66.66,0,0,0,1,98.6a35.51,35.51,0,0,1,4.91-2.42.69.69,0,0,0,.46-.81.66.66,0,0,0-.81-.46Z"/><path class="cls-7" d="M6.68,97.3l-2.42,3.45a.66.66,0,0,0,.24.91h0a.68.68,0,0,0,.92-.23L7.84,98a.66.66,0,0,0-.21-.9l0,0A.68.68,0,0,0,6.68,97.3Z"/><path class="cls-7" d="M31,96.59A27.52,27.52,0,0,0,34.27,99a.65.65,0,0,0,.89-.24.64.64,0,0,0-.23-.89c-.54-.35-1.08-.71-1.61-1.1l-.38-.28-.09-.08h0l-.18-.14-.78-.64a.65.65,0,0,0-.92.92Z"/><path class="cls-7" d="M32.58,94.28l4.12.85a.66.66,0,0,0,.85-.38.67.67,0,0,0-.38-.86l-.12,0L32.93,93a.68.68,0,0,0-.81.46A.67.67,0,0,0,32.58,94.28Z"/></g></g></g></svg>